<?xml version="1.0" encoding="UTF-8"?>
<svg width="24" height="24" viewBox="0 0 24 24" fill="none" xmlns="http://www.w3.org/2000/svg">
  <path fill-rule="evenodd" clip-rule="evenodd" d="M12 2C9.5 2 7.5 3.5 6.5 5.5C4.5 5.8 3 7.5 3 9.5C3 11 3.8 12.3 5 13C4.7 13.7 4.5 14.5 4.5 15.5C4.5 18 6.5 20 9 20C9.8 20 10.5 19.8 11.2 19.4C11.5 19.5 11.7 19.5 12 19.5C12.3 19.5 12.5 19.5 12.8 19.4C13.5 19.8 14.2 20 15 20C17.5 20 19.5 18 19.5 15.5C19.5 14.5 19.3 13.7 19 13C20.2 12.3 21 11 21 9.5C21 7.5 19.5 5.8 17.5 5.5C16.5 3.5 14.5 2 12 2ZM12 4C13.5 4 14.8 4.8 15.5 6L16 7H17C18.1 7 19 7.9 19 9.5C19 10.5 18.4 11.3 17.5 11.7L16.5 12.2L17 13C17.3 13.5 17.5 14.2 17.5 15C17.5 16.7 16.2 18 14.5 18C14 18 13.5 17.9 13 17.6L12 17L11 17.6C10.5 17.9 10 18 9.5 18C7.8 18 6.5 16.7 6.5 15C6.5 14.2 6.7 13.5 7 13L7.5 12.2L6.5 11.7C5.6 11.3 5 10.5 5 9.5C5 7.9 5.9 7 7 7H8L8.5 6C9.2 4.8 10.5 4 12 4ZM10 8C9.4 8 9 8.4 9 9C9 9.6 9.4 10 10 10C10.6 10 11 9.6 11 9C11 8.4 10.6 8 10 8ZM14 8C13.4 8 13 8.4 13 9C13 9.6 13.4 10 14 10C14.6 10 15 9.6 15 9C15 8.4 14.6 8 14 8ZM12 12C11.4 12 11 12.4 11 13C11 13.6 11.4 14 12 14C12.6 14 13 13.6 13 13C13 12.4 12.6 12 12 12Z" fill="#C5C5C5"/>
</svg>
